<?xml version="1.0" ?><!DOCTYPE svg  PUBLIC '-//W3C//DTD SVG 1.1//EN'  'http://www.w3.org/Graphics/SVG/1.1/DTD/svg11.dtd'><svg height="256px" style="shape-rendering:geometricPrecision; text-rendering:geometricPrecision; image-rendering:optimizeQuality; fill-rule:evenodd; clip-rule:evenodd" version="1.1" viewBox="0 0 256000 255998" width="256px" xml:space="preserve" xmlns="http://www.w3.org/2000/svg" xmlns:xlink="http://www.w3.org/1999/xlink"><defs><style type="text/css">
   <![CDATA[
    .fil7 {fill:none}
    .fil6 {fill:#FFCC35}
    .fil1 {fill:#F4A85E}
    .fil3 {fill:#EC613F}
    .fil5 {fill:#75C05B}
    .fil0 {fill:#00A3E1}
    .fil4 {fill:#00AB58}
    .fil2 {fill:#2264A9}
   ]]>
  </style></defs><g id="Layer_x0020_1"><g id="_391637088"><path class="fil0" d="M2970 55288c-4699,2727 -3570,11601 1623,23202 18160,40568 43302,73746 75372,98722 26266,-16575 8246,-26066 11679,-37706 5468,-11525 7237,-22739 21721,-26583l-1774 -11083c-24975,-22761 -53597,-40169 -85864,-48771 -6964,-1857 -15173,-2189 -22757,2219z"/><path class="fil1" d="M128883 107307c11528,19510 19360,37687 23794,55570l590 3250 1036 3400c14481,6058 29409,8868 44926,7094 16109,-2217 27783,-8868 34879,-20395l8423 -19507c-10641,-19363 -28375,-31626 -53204,-36061 -21133,-3253 -41084,-1034 -60444,6649z"/><path class="fil2" d="M152678 162877c-4435,-17883 -12267,-36060 -23795,-55569l-1181 -1626 -6062 -9457c-2808,-3844 -4726,-4695 -7240,-3585 -2626,1157 -3842,3141 -2809,7575l0 1625 1774 11083 444 3844 19952 54977 2217 4433c6650,10494 13891,19360 21131,26011l-2806 -31034 -1036 -5027 -589 -3250z"/><path class="fil3" d="M128883 107307c19360,-7683 39311,-9901 60444,-6649 24830,4435 42563,16699 53203,36061 15962,-42713 18357,-78772 3843,-106999 -2571,-5001 -6585,-9339 -11084,-12710 -8801,-6595 -19283,-5461 -30445,0 -44406,21732 -71859,49496 -81316,82158l4174 6514 1181 1625z"/><path class="fil4" d="M113809 116767l-444 -3844c-14484,3844 -24532,11678 -30001,23204 -5616,11674 -6652,24976 -3399,41085l11677 7831c11693,3560 23270,5492 34433,1628l9903 -10494 -2217 -4433 -19952 -54977z"/><path class="fil5" d="M79965 177210c11677,30001 28683,52982 53350,64881 3645,1757 8266,1819 12120,590 2500,-797 3905,-3686 5024,-6059 3853,-8169 5468,-19506 6650,-34434 -7240,-6652 -14482,-15517 -21132,-26011 -21428,13815 -33394,16206 -56012,1033z"/><path class="fil6" d="M200413 230414c4405,476 8009,-1916 11082,-4432 12464,-10209 21842,-22660 27637,-38278 6326,-17046 7241,-33695 3398,-50985l-8420 19507c-7096,11527 -18772,18178 -34881,20395 -15517,1774 -30445,-1035 -44927,-7094l1 1627 2806 31033c9903,10494 22032,19655 36061,26011 2299,1041 4732,1947 7243,2216z"/></g></g><rect class="fil7" height="255998" width="255998" x="2"/></svg>